<svg width="32" height="32" viewBox="0 0 32 32" xmlns="http://www.w3.org/2000/svg">
  <g fill="black" stroke="none">
    <!-- Main helmet shape -->
    <path d="M16 6c4 0 8 3 8 8v8c0 3-2 6-6 6h-4c-4 0-6-3-6-6v-8c0-5 4-8 8-8z"/>
    
    <!-- Face opening -->
    <ellipse cx="16" cy="18" rx="5" ry="6" fill="transparent"/>
    
    <!-- Eyes -->
    <circle cx="14" cy="16" r="1"/>
    <circle cx="18" cy="16" r="1"/>
    
    <!-- Wings -->
    <path d="M2 14c3-2 6-1 8 1l-2 4c-2 0-4-2-6-5z"/>
    <path d="M2 18c3-1 6 0 8 2l-2 3c-2 0-4-2-6-5z"/>
    
    <!-- Helmet crest -->
    <path d="M16 6l2-2c2-1 4 0 6 2l2 1"/>
    
    <!-- Plume -->
    <path d="M20 4c2-2 4-1 6 1s4 1 6 3"/>
  </g>
</svg> 